<svg width="1200" height="630" xmlns="http://www.w3.org/2000/svg" xmlns:xlink="http://www.w3.org/1999/xlink">
    <defs>
        <linearGradient id="gradient" x1="0%" y1="0%" x2="100%" y2="100%">
            <stop offset="0%" style="stop-color:#ff7e5f;stop-opacity:1" />
            <stop offset="100%" style="stop-color:#feb47b;stop-opacity:1" />
        </linearGradient>
        <filter id="textShadow">
            <feDropShadow dx="1" dy="1" stdDeviation="2" flood-color="black" flood-opacity="0.5"/>
        </filter>
    </defs>
    <rect width="1200" height="630" fill="url(#gradient)" />
    <g>
        <circle cx="100" cy="100" r="30" fill="white" opacity="0.1" />
        <circle cx="200" cy="150" r="25" fill="white" opacity="0.1" />
        <circle cx="300" cy="80" r="20" fill="white" opacity="0.1" />
        <circle cx="400" cy="200" r="35" fill="white" opacity="0.1" />
        <circle cx="500" cy="300" r="30" fill="white" opacity="0.1" />
        <circle cx="600" cy="100" r="28" fill="white" opacity="0.1" />
        <circle cx="700" cy="250" r="22" fill="white" opacity="0.1" />
        <circle cx="800" cy="180" r="27" fill="white" opacity="0.1" />
        <circle cx="900" cy="400" r="24" fill="white" opacity="0.1" />
        <circle cx="1000" cy="350" r="26" fill="white" opacity="0.1" />
        <circle cx="1100" cy="150" r="30" fill="white" opacity="0.1" />
        <circle cx="150" cy="500" r="32" fill="white" opacity="0.1" />
        <circle cx="250" cy="550" r="25" fill="white" opacity="0.1" />
        <circle cx="350" cy="480" r="20" fill="white" opacity="0.1" />
        <circle cx="450" cy="520" r="35" fill="white" opacity="0.1" />
        <circle cx="550" cy="400" r="30" fill="white" opacity="0.1" />
        <circle cx="650" cy="600" r="28" fill="white" opacity="0.1" />
        <circle cx="750" cy="450" r="22" fill="white" opacity="0.1" />
        <circle cx="850" cy="580" r="27" fill="white" opacity="0.1" />
        <circle cx="950" cy="350" r="24" fill="white" opacity="0.1" />
        <circle cx="1050" cy="420" r="26" fill="white" opacity="0.1" />
        <circle cx="1150" cy="250" r="30" fill="white" opacity="0.1" />
    </g>
    <text x="600" y="270" font-family="'Inter', 'Segoe UI', 'Roboto', sans-serif" font-size="40" 
          font-weight="700" fill="white" text-anchor="middle" filter="url(#textShadow)">
        <tspan x="600" dy="0">Advancements in Frontend</tspan>
        <tspan x="600" dy="62">Frameworks: Techniques</tspan>
        <tspan x="600" dy="62">for Cross-Platform</tspan>
    </text>
    <text x="600" y="598" font-family="Arial, sans-serif" font-size="14" fill="white" 
          fill-opacity="0.5" text-anchor="middle" letter-spacing="2">TECH BLOG | 2026.01</text>
</svg>